<?xml version="1.0" encoding="utf-8"?>
<!-- Generator: Adobe Illustrator 27.5.0, SVG Export Plug-In . SVG Version: 6.00 Build 0)  -->
<svg version="1.1" xmlns="http://www.w3.org/2000/svg" xmlns:xlink="http://www.w3.org/1999/xlink" x="0px" y="0px"
	 viewBox="0 0 750 500" style="enable-background:new 0 0 750 500;" xml:space="preserve">
<g id="BACKGROUND">
	<rect style="fill:#FFFFFF;" width="750" height="500"/>
</g>
<g id="OBJECTS">
	<g>
		<path style="opacity:0.2;fill:#46909B;" d="M132.121,242.62c0,0,25.261-145.928,128.579-169.916s82.136,82.148,186.98,48.135
			c112.794-36.592,260.224,183.552,91.986,236.177s-172.555-63.087-242.764-16.699S88.844,369.932,132.121,242.62z"/>
		<path style="opacity:0.2;fill:#46909B;" d="M61.678,430.218h512.215c0,0-18.281-256.34-139.996-252.349
			c-74.372,2.438-116.715,142.663-116.715,142.663s-6.555-113.892-67.642-112.489c-61.087,1.403-68.276,128.131-68.276,128.131
			s-5.809-59.176-59.709-49.36S61.678,430.218,61.678,430.218z"/>
		<path style="opacity:0.2;fill:#46909B;" d="M688.322,430.862H416.806c0,0,44.953-131.914,139.082-135.29
			C664.249,291.687,688.322,430.862,688.322,430.862z"/>
		<path style="opacity:0.2;fill:#46909B;" d="M335.881,430.862H155.491c0,0,29.866-87.641,92.403-89.883
			C319.887,338.397,335.881,430.862,335.881,430.862z"/>
	</g>
	<g>
		<path style="fill:#CA4F24;" d="M99.849,400.027c0,0-18.532-10.786-29.921-30.635c-11.389-19.849-35.364-39.285-30.312-51.741
			s39.785,3.044,56.115,63.45C102.955,407.817,121.114,418.46,99.849,400.027z"/>
		<path style="fill:#427B83;" d="M97.965,393.803c0,0-10.315-10.636-12.443-37.543s-20.87-68.566-9.691-79.961
			s17.815,4,31.396,34.089C122.243,343.659,110.905,423.6,97.965,393.803z"/>
		<path style="fill:#42395E;" d="M116.07,408.752c0,0,14.853-15.442,19.297-42.065c4.444-26.623,36.782-64.571,21.798-70.075
			c-18.935-6.955-47.316,38.767-47.316,70.075C109.849,399.699,100.605,437.32,116.07,408.752z"/>
		<polygon style="fill:#F8F4E2;" points="113.14,379.532 73.522,379.532 82.012,430.655 95.432,430.655 113.14,430.655 
			126.56,430.655 135.05,379.532 		"/>
		<path style="fill:#2E2427;" d="M101.002,374.373c-0.254,0-0.464-0.202-0.472-0.458l-0.028-0.98
			c-0.706-25.469-3.094-43.843-7.1-54.616C87.14,301.48,81.22,286.624,81.16,286.477c-0.096-0.242,0.022-0.517,0.263-0.614
			c0.245-0.094,0.517,0.022,0.614,0.263c0.059,0.148,5.982,15.013,12.25,31.864c4.041,10.868,6.45,29.346,7.158,54.918l0.028,0.978
			c0.007,0.261-0.197,0.477-0.458,0.485C101.011,374.373,101.006,374.373,101.002,374.373z"/>
		<path style="fill:#2E2427;" d="M89.192,377.025c-0.169,0-0.332-0.09-0.416-0.25c-0.116-0.217-11.681-21.839-21.292-30.988
			c-9.686-9.222-22.503-24.635-22.631-24.79c-0.167-0.201-0.139-0.497,0.062-0.664c0.201-0.167,0.497-0.139,0.664,0.062
			c0.128,0.154,12.909,15.526,22.555,24.709c9.722,9.255,21.358,31.01,21.474,31.228c0.123,0.23,0.035,0.516-0.194,0.638
			C89.343,377.007,89.268,377.025,89.192,377.025z"/>
		<path style="fill:#2E2427;" d="M118.284,377.025c-0.018,0-0.037-0.001-0.055-0.003c-0.259-0.03-0.444-0.264-0.415-0.523
			c1.459-12.53,9.952-31.046,16.821-44.374c7.431-14.419,14.612-26.04,14.684-26.156c0.138-0.221,0.43-0.288,0.649-0.152
			c0.221,0.137,0.289,0.427,0.152,0.649c-0.286,0.461-28.604,46.402-31.368,70.141C118.723,376.848,118.52,377.025,118.284,377.025z
			"/>
	</g>
	<g>
		<path style="fill:#42395E;" d="M649.824,400.027c0,0-18.532-10.786-29.921-30.635c-11.389-19.849-35.364-39.285-30.312-51.741
			s39.785,3.044,56.115,63.45C652.929,407.817,671.088,418.46,649.824,400.027z"/>
		<path style="fill:#427B83;" d="M647.939,393.803c0,0-10.315-10.636-12.443-37.543c-2.128-26.907-20.87-68.566-9.691-79.961
			s17.815,4,31.396,34.089C672.218,343.659,660.879,423.6,647.939,393.803z"/>
		<path style="fill:#CA4F24;" d="M666.044,408.752c0,0,14.853-15.442,19.297-42.065c4.444-26.623,36.782-64.571,21.798-70.075
			c-18.935-6.955-47.316,38.767-47.316,70.075C659.823,399.699,650.579,437.32,666.044,408.752z"/>
		<polygon style="fill:#F8F4E2;" points="663.115,379.532 623.497,379.532 631.986,430.655 645.406,430.655 663.115,430.655 
			676.534,430.655 685.024,379.532 		"/>
		<path style="fill:#2E2427;" d="M650.976,374.373c-0.254,0-0.464-0.202-0.472-0.458l-0.027-0.964
			c-0.704-25.472-3.092-43.853-7.1-54.631c-6.262-16.839-12.182-31.695-12.242-31.842c-0.096-0.242,0.022-0.517,0.263-0.614
			c0.245-0.094,0.517,0.022,0.614,0.263c0.059,0.148,5.982,15.013,12.249,31.864c4.044,10.875,6.453,29.358,7.159,54.933
			l0.028,0.963c0.007,0.261-0.197,0.477-0.458,0.485C650.985,374.373,650.98,374.373,650.976,374.373z"/>
		<path style="fill:#2E2427;" d="M639.166,377.025c-0.169,0-0.332-0.09-0.416-0.25c-0.116-0.217-11.68-21.839-21.291-30.988
			c-9.687-9.222-22.503-24.635-22.631-24.79c-0.167-0.201-0.139-0.497,0.062-0.664c0.201-0.167,0.497-0.139,0.664,0.062
			c0.128,0.154,12.909,15.526,22.556,24.709c9.722,9.255,21.357,31.01,21.474,31.228c0.123,0.23,0.035,0.516-0.194,0.638
			C639.317,377.007,639.242,377.025,639.166,377.025z"/>
		<path style="fill:#2E2427;" d="M668.259,377.025c-0.018,0-0.037-0.001-0.055-0.003c-0.259-0.03-0.444-0.264-0.415-0.523
			c1.459-12.53,9.952-31.046,16.82-44.374c7.431-14.419,14.612-26.04,14.684-26.156c0.138-0.221,0.43-0.288,0.649-0.152
			c0.221,0.137,0.289,0.427,0.152,0.649c-0.286,0.461-28.604,46.402-31.367,70.141C668.698,376.848,668.495,377.025,668.259,377.025
			z"/>
	</g>
	<g>
		<rect x="253.86" y="110.78" style="fill:#F8F4E2;" width="242.729" height="124.627"/>
		<rect x="247.523" y="236.689" style="fill:#42395E;" width="254.954" height="8.432"/>
		<rect x="247.523" y="105.013" style="fill:#42395E;" width="254.954" height="8.432"/>
		<rect x="396.583" y="141.3" style="fill:#E7B119;" width="19.804" height="27.657"/>
		<rect x="396.583" y="197.398" style="fill:#CA4F24;" width="10.955" height="10.49"/>
		<rect x="423.92" y="133.925" style="fill:#CA4F24;" width="19.804" height="35.031"/>
		<rect x="450.635" y="122.761" style="fill:#427B83;" width="19.804" height="46.195"/>
		<path style="fill:#CA4F24;" d="M365.992,163.106c-0.248-20.642-16.958-37.317-37.615-37.503v37.503H365.992z"/>
		<path style="fill:#427B83;" d="M317.827,173.094h3.294V135.59c-0.117-0.001-0.232-0.009-0.348-0.009
			c-20.973,0-37.976,17.002-37.976,37.976c0,20.973,17.002,37.976,37.976,37.976c0.117,0,0.232-0.008,0.348-0.009v-38.43H317.827z"
			/>
		<path style="fill:#42395E;" d="M321.121,173.094v38.43c20.812-0.188,37.627-17.11,37.627-37.967c0-0.155-0.01-0.308-0.012-0.463
			H321.121z"/>
		<rect x="416.387" y="197.398" style="fill:#42395E;" width="44.266" height="3.548"/>
		<rect x="416.387" y="204.34" style="fill:#42395E;" width="21.056" height="3.548"/>
		<rect x="396.583" y="181.819" style="fill:#427B83;" width="10.955" height="10.49"/>
		<rect x="416.387" y="181.819" style="fill:#42395E;" width="44.266" height="3.548"/>
		<rect x="416.387" y="188.76" style="fill:#42395E;" width="21.056" height="3.548"/>
		<rect x="396.583" y="213.224" style="fill:#E7B119;" width="10.955" height="10.49"/>
		<rect x="416.387" y="213.224" style="fill:#42395E;" width="44.266" height="3.548"/>
		<rect x="416.387" y="220.165" style="fill:#42395E;" width="21.056" height="3.548"/>
	</g>
	<g>
		<path style="fill:#E1AE8D;" d="M533.092,121.479c0,0-8.636,54.138,44.055,73.846l-20.307,20.726c0,0-35.458-24.566-40.542-55.945
			c-4.421-27.288,7.828-51.292,10.386-52.558s-0.545,7.769-0.545,7.769s6.033-8.096,7.224-7.217
			c1.191,0.879-3.204,8.764-3.204,8.764s6.415-9.317,6.673-6.116C537.002,112.863,533.092,121.479,533.092,121.479z"/>
		<path style="fill:#E1AE8D;" d="M563.466,284.39c0,0-11.003,36.187-2.959,71.089c8.044,34.902,32.34,68.813,25.673,71.215
			c-8.277,2.982-7.926,5.438,3.671,3.688c6.257-0.944,5.698-9.401,5.698-9.401s-6.408-47.046-9.399-67.411
			s5.618-52.367,5.618-52.367s6.477,40.196,12.476,61.438c7.193,25.469,17.831,45.592,19.258,58.705
			c0.814,7.48-10.472,9.854-6.136,9.036c5.475-1.034,14.803-3.688,14.803-3.688s-2.489-48.409-3.954-67.942
			c-1.287-17.163-3.947-68.149-3.947-68.149L563.466,284.39z"/>
		<g>
			<path style="fill:#427B83;" d="M596.686,419.911c0,0-11.219-0.776-11.306,0.058c-0.087,0.833,0.041,4.868-0.379,5.514
				c-0.42,0.645-10.605,4.178-11.052,5.964s22.161,0.918,22.161,0.918L596.686,419.911z"/>
			<path style="fill:#2E2427;" d="M590.864,426.531c-0.073,0-0.146-0.017-0.214-0.052l-5.562-2.831
				c-0.232-0.118-0.325-0.402-0.206-0.634c0.118-0.234,0.405-0.324,0.634-0.206l5.562,2.831c0.232,0.118,0.325,0.402,0.206,0.634
				C591.201,426.437,591.035,426.531,590.864,426.531z"/>
			<path style="fill:#2E2427;" d="M588.676,429.146c-0.103,0-0.206-0.033-0.293-0.102l-5.051-4.007
				c-0.205-0.162-0.239-0.459-0.076-0.662c0.161-0.205,0.46-0.239,0.662-0.076l5.051,4.007c0.205,0.162,0.239,0.459,0.076,0.662
				C588.953,429.085,588.815,429.146,588.676,429.146z"/>
			<path style="fill:#2E2427;" d="M585.798,430.854c-0.111,0-0.221-0.039-0.311-0.117l-4.206-3.688
				c-0.195-0.171-0.215-0.47-0.043-0.666c0.172-0.195,0.469-0.215,0.666-0.043l4.206,3.688c0.195,0.171,0.215,0.47,0.043,0.666
				C586.059,430.799,585.928,430.854,585.798,430.854z"/>
		</g>
		<g>
			<path style="fill:#427B83;" d="M634.038,419.911c0,0-11.219-0.776-11.306,0.058c-0.087,0.833,0.041,4.868-0.379,5.514
				c-0.42,0.645-10.605,4.178-11.052,5.964c-0.447,1.787,22.161,0.918,22.161,0.918L634.038,419.911z"/>
			<path style="fill:#2E2427;" d="M628.216,426.531c-0.073,0-0.146-0.017-0.214-0.052l-5.562-2.831
				c-0.232-0.118-0.325-0.402-0.206-0.634c0.118-0.234,0.404-0.324,0.634-0.206l5.562,2.831c0.232,0.118,0.325,0.402,0.206,0.634
				C628.553,426.437,628.387,426.531,628.216,426.531z"/>
			<path style="fill:#2E2427;" d="M626.028,429.146c-0.103,0-0.206-0.033-0.293-0.102l-5.051-4.007
				c-0.205-0.162-0.239-0.459-0.076-0.662c0.162-0.205,0.459-0.239,0.662-0.076l5.051,4.007c0.205,0.162,0.239,0.459,0.076,0.662
				C626.304,429.085,626.167,429.146,626.028,429.146z"/>
			<path style="fill:#2E2427;" d="M623.149,430.854c-0.111,0-0.221-0.039-0.311-0.117l-4.206-3.688
				c-0.195-0.171-0.215-0.47-0.043-0.666c0.171-0.195,0.469-0.215,0.666-0.043l4.206,3.688c0.195,0.171,0.215,0.47,0.043,0.666
				C623.411,430.799,623.28,430.854,623.149,430.854z"/>
		</g>
		<path style="fill:#9AC5A8;" d="M557.536,295.221c0,0-2.676,33.307,2.971,60.258c6.342,30.27,16.339,57.11,18.968,58.741
			s15.17-1.895,16.074-3.203c0.905-1.308-4.528-50.869-4.89-61.512s0.204-38.526,0.204-38.526s3.993,22.367,5.822,36.921
			c3.793,30.185,18.301,62.226,21.149,63.105c2.848,0.88,15.618-0.145,16.013-1.403s-6.139-55.856-5.632-62.915
			c0.507-7.059-0.477-45.821-0.477-45.821S574.272,295.499,557.536,295.221z"/>
		<path style="fill:#2E2427;" d="M631.189,408.705c-0.222,0-0.419-0.158-0.462-0.383c-0.079-0.418-7.97-41.957-10.149-58.755
			c-2.183-16.848,2.061-46.764,2.104-47.064c0.038-0.259,0.283-0.431,0.534-0.4c0.258,0.037,0.437,0.276,0.4,0.534
			c-0.043,0.298-4.27,30.087-2.102,46.808c2.174,16.771,10.06,58.283,10.139,58.7c0.049,0.256-0.12,0.503-0.375,0.552
			C631.248,408.702,631.219,408.705,631.189,408.705z"/>
		<path style="fill:#2E2427;" d="M622.377,407.866c-3.57,0-6.731-0.233-7.451-0.291c-0.259-0.02-0.453-0.248-0.432-0.508
			c0.02-0.26,0.257-0.45,0.508-0.432c4.374,0.346,16.18,0.755,18.224-1.503c0.175-0.193,0.473-0.206,0.666-0.034
			c0.193,0.175,0.208,0.473,0.034,0.666C632.384,407.469,627.032,407.866,622.377,407.866z"/>
		<path style="fill:#2E2427;" d="M592.366,411.489c-0.214,0-0.408-0.146-0.459-0.363c-0.578-2.446-14.135-60.078-10.778-76.033
			c3.367-16.002,6.504-18.998,6.636-19.118c0.193-0.174,0.492-0.16,0.666,0.032c0.174,0.192,0.161,0.487-0.029,0.662
			c-0.045,0.044-3.088,3.112-6.351,18.617c-3.314,15.75,10.631,75.025,10.772,75.622c0.06,0.253-0.097,0.508-0.35,0.567
			C592.438,411.486,592.402,411.489,592.366,411.489z"/>
		<path style="fill:#2E2427;" d="M577.147,411.489c-0.21,0-0.401-0.14-0.456-0.352c-0.066-0.252,0.085-0.51,0.336-0.576
			c0.111-0.029,11.174-2.937,17.835-5.553c0.24-0.094,0.516,0.025,0.612,0.267c0.095,0.242-0.025,0.516-0.267,0.612
			c-6.714,2.636-17.828,5.557-17.94,5.586C577.226,411.485,577.186,411.489,577.147,411.489z"/>
		<path style="fill:#2E2427;" d="M590.864,311.451c-0.156,0-0.306-0.077-0.394-0.213c-0.172-0.262-4.211-6.496-4.223-13.469
			c0-0.261,0.21-0.473,0.471-0.473h0.001c0.26,0,0.472,0.211,0.472,0.471c0.008,4.82,2.098,9.389,3.279,11.588
			c0.525-5.703,3.589-10.671,3.732-10.898c0.139-0.222,0.431-0.287,0.649-0.15c0.221,0.137,0.288,0.428,0.15,0.649
			c-0.036,0.059-3.664,5.947-3.664,12.022c0,0.208-0.137,0.392-0.336,0.452C590.954,311.444,590.909,311.451,590.864,311.451z"/>
		<path style="fill:#2E2427;" d="M620.42,323.356c-0.14,0-0.279-0.063-0.372-0.181c-8.432-10.801-9.029-22.173-9.034-22.286
			c-0.012-0.261,0.19-0.481,0.45-0.492c0.273-0.043,0.48,0.19,0.492,0.45c0.005,0.111,0.598,11.195,8.837,21.748
			c0.16,0.205,0.123,0.502-0.082,0.662C620.624,323.324,620.522,323.356,620.42,323.356z"/>
		<path style="fill:#2E2427;" d="M556.334,314.044c-0.085,0-0.17-0.022-0.247-0.07c-0.222-0.136-0.291-0.426-0.155-0.648
			c5.989-9.734,5.874-16.605,5.872-16.673c-0.006-0.261,0.198-0.477,0.458-0.485c0.28-0.041,0.478,0.196,0.485,0.457
			c0.008,0.289,0.139,7.197-6.013,17.195C556.646,313.964,556.491,314.044,556.334,314.044z"/>
		<path style="fill:#CA4F24;" d="M635.683,214.372c0,0-0.989,18.268-1.835,38.94c-0.846,20.671-1.571,49.837-9.21,49.353
			c-47.055-2.981-67.102-7.444-67.102-7.444c1.469-11.055,8.548-89.504,18.607-95.163S636.721,204.532,635.683,214.372z"/>
		<path style="fill:#CA4F24;" d="M592.366,198.429c0,0-9.747,0-28.263-12.638c-3.294-2.248-21,19.256-19.968,20.534
			c1.033,1.278,16.791,16.632,23.253,18.518C573.851,226.731,592.366,198.429,592.366,198.429z"/>
		<path style="fill:#2E2427;" d="M568.23,223.096c-0.054,0-0.111-0.009-0.164-0.029c-0.244-0.091-0.368-0.362-0.278-0.607
			c4.77-12.838,15.333-23.641,15.439-23.749c0.184-0.186,0.483-0.187,0.667-0.005c0.186,0.183,0.188,0.481,0.006,0.667
			c-0.105,0.106-10.529,10.771-15.227,23.415C568.601,222.979,568.421,223.096,568.23,223.096z"/>
		<g>
			<path style="fill:#D47974;" d="M609.625,184.425c0,0,4.351-6.831,7.049-5.269s-3.132,10.284-6.62,9.737
				C606.565,188.347,609.625,184.425,609.625,184.425z"/>
			<path style="fill:#E2AE8E;" d="M615.939,180.844c0,0-10.029,17.31-19.653,12.113c-9.624-5.197,0.259-20.655,5.23-25.868
				C606.488,161.877,619.309,176.026,615.939,180.844z"/>
			<path style="fill:#E2AE8E;" d="M598.341,187.418c0,0-1.452,17.945-0.036,22.565s14.295-2.992,15.102-6.77
				c0.459-2.146-2.063-9.825-0.157-19.224C613.25,183.99,600.394,181.88,598.341,187.418z"/>
			<path style="fill:#2E2427;" d="M600.755,167.928c0,0-0.479-12.837,12.119-11.414c8.237,0.931,2.735,3.537,2.536,4.305
				c-0.712,2.756,3.722,4.019,5.701,8.823L600.755,167.928z"/>
			<path style="fill:#2E2427;" d="M600.755,167.928c0,0,10.962-0.119,12.708,7.753c1.747,7.872-0.791,12.335-0.791,12.335
				s5.927,2.323,9.829-5.319c5.069-9.928-6.006-19.018-6.006-19.018S604.8,162.411,600.755,167.928z"/>
			<path style="fill:#E2AE8E;" d="M613.61,183.4c0,0,4.396-2.63,4.759-0.088c0.364,2.542-3.426,4.752-6.041,4.335
				C609.714,187.23,613.61,183.4,613.61,183.4z"/>
			<path style="fill:#2E2427;" d="M599.853,194.308c-0.66,0-1.333-0.066-2.013-0.215c-0.254-0.055-0.415-0.307-0.36-0.561
				c0.055-0.254,0.304-0.418,0.561-0.36c5.97,1.298,11.615-4.544,11.671-4.603c0.182-0.189,0.48-0.195,0.667-0.017
				c0.189,0.179,0.196,0.478,0.017,0.666C610.177,189.449,605.49,194.308,599.853,194.308z"/>
			<path style="fill:#F8F4E2;" d="M608.384,167.843c-0.19,0-0.368-0.115-0.44-0.303c-0.814-2.118-0.817-3.972-0.009-5.508
				c1.283-2.437,4.128-3.142,4.248-3.171c0.256-0.059,0.507,0.096,0.567,0.348c0.061,0.253-0.095,0.508-0.347,0.569
				c-0.026,0.006-2.558,0.642-3.637,2.699c-0.673,1.284-0.653,2.873,0.058,4.724c0.093,0.243-0.028,0.516-0.271,0.609
				C608.497,167.833,608.44,167.843,608.384,167.843z"/>
			<path style="fill:#F8F4E2;" d="M604.364,166.428c-0.194,0-0.377-0.122-0.445-0.316c-0.756-2.156-0.754-3.932,0.005-5.277
				c0.905-1.603,2.546-1.963,2.615-1.977c0.25-0.055,0.506,0.11,0.558,0.365c0.053,0.254-0.109,0.504-0.363,0.558
				c-0.018,0.004-1.31,0.301-1.995,1.53c-0.614,1.098-0.59,2.608,0.07,4.489c0.087,0.246-0.043,0.515-0.289,0.601
				C604.468,166.42,604.415,166.428,604.364,166.428z"/>
			<path style="fill:#F8F4E2;" d="M621.112,177.067c-6.472,0-8.081-4.826-8.097-4.875c-0.078-0.247,0.058-0.512,0.306-0.591
				c0.243-0.079,0.512,0.057,0.592,0.304c0.056,0.172,1.438,4.219,7.199,4.219c0.261,0,0.472,0.211,0.472,0.472
				S621.372,177.067,621.112,177.067z"/>
			<path style="fill:#F8F4E2;" d="M619.569,179.466c-1.233,0-3.404-0.36-5.04-2.592c-0.154-0.21-0.109-0.505,0.101-0.659
				c0.211-0.154,0.505-0.109,0.66,0.102c1.999,2.726,4.921,2.17,5.044,2.145c0.252-0.05,0.504,0.112,0.556,0.367
				c0.052,0.255-0.111,0.503-0.365,0.556C620.48,179.395,620.118,179.466,619.569,179.466z"/>
			<g>
				<path style="fill:#2E2427;" d="M596.064,182.676c-0.167,0-0.324-0.089-0.409-0.237c-0.099-0.171-0.079-0.386,0.047-0.537
					l4.689-5.609c0.168-0.199,0.467-0.226,0.664-0.059c0.2,0.167,0.227,0.465,0.06,0.665l-3.872,4.631l2.225-0.371
					c0.254-0.044,0.499,0.131,0.543,0.387c0.043,0.257-0.131,0.5-0.388,0.543l-3.481,0.581
					C596.116,182.673,596.09,182.676,596.064,182.676z"/>
				<path style="fill:#2E2427;" d="M598.443,187.053c-0.252,0-0.494-0.054-0.708-0.186c-0.684-0.418-0.852-1.414-0.512-3.043
					c0.053-0.255,0.302-0.419,0.558-0.365c0.254,0.053,0.418,0.303,0.365,0.558c-0.272,1.305-0.136,1.913,0.081,2.046
					c0.392,0.24,1.55-0.39,2.233-0.94c0.201-0.163,0.498-0.132,0.662,0.071c0.164,0.203,0.133,0.5-0.07,0.663
					C600.763,186.09,599.506,187.053,598.443,187.053z"/>
				<circle style="fill:#2E2427;" cx="606.158" cy="179.322" r="1.528"/>
				<circle style="fill:#2E2427;" cx="598.409" cy="175.067" r="1.528"/>
			</g>
		</g>
		<path style="fill:#E1AE8D;" d="M635.699,211.427c0,0,35.63,13.408,37.738,41.234c1.863,24.586-20.138,41.126-44.138,43.087
			c0,0-6.501,1.393-6.532,0.129c-0.016-0.655,4.585-2.528,4.585-2.528s-7.441,0.178-5.066-0.929
			c1.827-0.851,4.364-1.601,4.364-1.601s-6.035-1.147-4.122-1.813c4.824-1.679,33.76-21.298,33.996-29.978
			c0.157-5.796-21.993-17.111-21.993-17.111L635.699,211.427z"/>
		<path style="fill:#CA4F24;" d="M618.394,228.186c0,0,18.198,20.364,27.258,22.365c5.34,1.179,18.244-19.549,16.714-21.417
			c-19.543-23.853-45.223-24.305-45.869-26.126S620.149,225.591,618.394,228.186z"/>
		<path style="fill:#2E2427;" d="M633.848,241.342c-0.004,0-0.007,0-0.011,0c-0.26-0.006-0.466-0.222-0.461-0.482
			c0.473-20.759,0.684-29.444,0.684-29.444c0.006-0.26,0.254-0.459,0.483-0.46c0.261,0.006,0.467,0.222,0.461,0.483
			c0,0-0.211,8.685-0.684,29.443C634.314,241.138,634.104,241.342,633.848,241.342z"/>
		<path style="fill:#2E2427;" d="M599.803,214.888c-0.707,0-1.37-0.067-1.969-0.205c-4.446-1.027-3.734-7.323-3.702-7.591
			c0.03-0.259,0.271-0.439,0.524-0.411c0.259,0.031,0.443,0.266,0.412,0.525c-0.006,0.057-0.642,5.722,2.978,6.558
			c3.72,0.859,11.601-1.443,15.019-6.866c0.139-0.221,0.431-0.285,0.65-0.147c0.22,0.139,0.286,0.43,0.147,0.65
			C610.959,212.007,604.435,214.887,599.803,214.888z"/>
	</g>
	<g>
		<path style="fill:#2E2427;" d="M457.623,431.613c-0.155,0-0.312-0.018-0.469-0.059c-1.01-0.259-1.619-1.286-1.36-2.296
			l18.178-70.975c0.259-1.009,1.286-1.622,2.296-1.36c1.01,0.259,1.618,1.286,1.36,2.296l-18.178,70.975
			C459.232,431.047,458.465,431.613,457.623,431.613z"/>
		<path style="fill:#2E2427;" d="M523.835,431.613c-0.842,0-1.608-0.566-1.827-1.419L503.83,359.22
			c-0.259-1.01,0.35-2.037,1.36-2.296c1.009-0.262,2.037,0.351,2.296,1.36l18.178,70.975c0.259,1.01-0.35,2.037-1.36,2.296
			C524.147,431.595,523.989,431.613,523.835,431.613z"/>
		<path style="fill:#E7B119;" d="M522.82,339.587c0,0,6.409-54.498-33.145-62.063s-32.928,31.749-46.835,44.169
			c-13.907,12.42-18.874,40.911,28.259,46.789C518.232,374.361,522.592,342.442,522.82,339.587z"/>
		<path style="fill:#427B83;" d="M441.318,264.013c0,0-12.684,12.2-14.018,16.388c-1.334,4.188,5.306,5.917,7.802,6.1
			c2.497,0.183,7.65-8.515,9.029-10.448S441.318,264.013,441.318,264.013z"/>
		<path style="fill:#E1AE8D;" d="M502.211,347.9c0,0,4.492-14.883-10.456-29.006c-6.783-6.408-8.168-39.651-8.168-39.651
			l-39.176,13.505c0,0,19.593,21.622,0.569,39.754L502.211,347.9z"/>
		<path style="fill:#E1AE8D;" d="M450.7,328.528c0,0-27.272,1.13-36.076,8.047c-8.804,6.917,0.052,86.701-1.409,86.653
			s-4.338,5.884-4.338,5.884l11.588-0.574c0,0,10.453-82.411,13.282-85.555s30.421,8.697,35.452,2.723
			C474.231,339.731,450.7,328.528,450.7,328.528z"/>
		<g>
			<path style="fill:#E7B119;" d="M422.634,419.911c0,0-11.219-0.776-11.306,0.058s0.041,4.868-0.379,5.514
				s-10.605,4.178-11.052,5.964s22.161,0.918,22.161,0.918L422.634,419.911z"/>
			<path style="fill:#2E2427;" d="M416.811,426.531c-0.073,0-0.146-0.017-0.214-0.052l-5.562-2.831
				c-0.232-0.118-0.325-0.402-0.206-0.634c0.118-0.234,0.405-0.324,0.634-0.206l5.562,2.831c0.232,0.118,0.325,0.402,0.206,0.634
				C417.148,426.437,416.983,426.531,416.811,426.531z"/>
			<path style="fill:#2E2427;" d="M414.624,429.146c-0.103,0-0.206-0.033-0.293-0.102l-5.051-4.007
				c-0.204-0.162-0.239-0.459-0.076-0.662c0.162-0.205,0.459-0.239,0.662-0.076l5.051,4.007c0.204,0.162,0.239,0.459,0.076,0.662
				C414.9,429.085,414.763,429.146,414.624,429.146z"/>
			<path style="fill:#2E2427;" d="M411.746,430.854c-0.111,0-0.221-0.039-0.311-0.117l-4.207-3.688
				c-0.195-0.171-0.215-0.47-0.043-0.666c0.171-0.195,0.469-0.215,0.666-0.043l4.207,3.688c0.195,0.171,0.215,0.47,0.043,0.666
				C412.007,430.799,411.877,430.854,411.746,430.854z"/>
		</g>
		<path style="fill:#CA4F24;" d="M424.758,412.802c0,0-8.841,0.526-12.66-0.627c-3.819-1.153-2.047-66.223-0.836-72.507
			c2.769-14.373,57.358-14.868,58.317-10.558c0.959,4.309-3.786,21.181-6.413,20.921c-2.628-0.26-28.41,1.271-28.41,1.271
			S428.578,413.5,424.758,412.802z"/>
		<path style="fill:#2E2427;" d="M417.698,407.729c-1.859,0-3.596-0.094-4.609-0.376c-0.251-0.07-0.398-0.33-0.328-0.58
			c0.07-0.251,0.328-0.399,0.58-0.328c2.779,0.772,11.942-0.007,12.034-0.016c0.251-0.018,0.488,0.169,0.51,0.429
			c0.022,0.26-0.169,0.488-0.429,0.51C425.205,407.391,421.232,407.729,417.698,407.729z"/>
		<path style="fill:#2E2427;" d="M422.041,411.931c-0.023,0-0.046-0.002-0.069-0.005c-0.258-0.038-0.437-0.278-0.399-0.535
			c0.307-2.086,7.522-51.145,9.946-58.686c0.079-0.248,0.345-0.385,0.593-0.304c0.248,0.079,0.384,0.345,0.304,0.593
			c-2.399,7.467-9.834,58.024-9.909,58.533C422.472,411.762,422.27,411.931,422.041,411.931z"/>
		<path style="fill:#E1AE8D;" d="M476.58,328.741c0,0-26.401,0.478-35.205,7.396s4.242,89.391,2.781,89.343
			c-1.46-0.048-9.052,3.632-9.052,3.632l15.25,0c0,0,10.691-77.083,13.52-80.227c2.83-3.144,15.11,5.946,20.141-0.028
			C489.045,342.883,476.58,328.741,476.58,328.741z"/>
		<g>
			<path style="fill:#E7B119;" d="M452.758,419.911c0,0-11.219-0.776-11.306,0.058s0.041,4.868-0.379,5.514
				s-10.605,4.178-11.052,5.964c-0.447,1.787,22.161,0.918,22.161,0.918L452.758,419.911z"/>
			<path style="fill:#2E2427;" d="M446.937,426.531c-0.073,0-0.146-0.017-0.214-0.052l-5.562-2.831
				c-0.232-0.118-0.325-0.402-0.206-0.634c0.118-0.234,0.404-0.324,0.634-0.206l5.562,2.831c0.232,0.118,0.325,0.402,0.206,0.634
				C447.274,426.437,447.108,426.531,446.937,426.531z"/>
			<path style="fill:#2E2427;" d="M444.749,429.146c-0.103,0-0.206-0.033-0.293-0.102l-5.052-4.007
				c-0.204-0.162-0.239-0.459-0.076-0.662c0.162-0.205,0.459-0.239,0.662-0.076l5.052,4.007c0.204,0.162,0.239,0.459,0.076,0.662
				C445.025,429.085,444.888,429.146,444.749,429.146z"/>
			<path style="fill:#2E2427;" d="M441.87,430.854c-0.111,0-0.221-0.039-0.311-0.117l-4.206-3.688
				c-0.195-0.171-0.215-0.47-0.043-0.666c0.171-0.195,0.469-0.215,0.666-0.043l4.206,3.688c0.195,0.171,0.215,0.47,0.043,0.666
				C442.132,430.799,442.001,430.854,441.87,430.854z"/>
		</g>
		<path style="fill:#CA4F24;" d="M455.088,413.033c0,0-9.046,0.897-12.865-0.231s-6.259-67.122-6.025-73.378
			c0.501-13.438,47.491-17.348,51.864-17.942c15.935-2.164,13.992,23.261,14.149,25.839c0.633,10.392-37.33,9.1-37.33,9.1
			S458.908,413.715,455.088,413.033z"/>
		<path style="fill:#2E2427;" d="M448.763,409.655c-1.859,0-3.595-0.093-4.609-0.376c-0.251-0.07-0.397-0.33-0.327-0.581
			c0.07-0.25,0.33-0.397,0.581-0.327c2.773,0.775,11.94-0.007,12.032-0.016c0.249-0.022,0.488,0.169,0.51,0.429
			c0.022,0.26-0.169,0.488-0.429,0.51C456.271,409.317,452.298,409.655,448.763,409.655z"/>
		<path style="fill:#427B83;" d="M490.289,264.421c0,0-7.357,4.863-1.052,24.017c9.521,28.923,12.982,48.137,12.982,48.137
			c-34.038-11.086-54.19-9.387-54.19-9.387c8.631-20.17-15.422-55.604-6.711-63.176C450.03,256.441,480.989,251.648,490.289,264.421
			z"/>
		<path style="fill:#427B83;" d="M449.211,265.383c0,0-18.603,16.634-11.883,25.957c6.72,9.322,17.18,7.523,21.926,3.222
			C464.001,290.262,449.211,265.383,449.211,265.383z"/>
		<g>
			<g>
				<path style="fill:#D47974;" d="M468.382,245.792c-3.516-0.321-0.714-4.431-0.714-4.431s3.904-7.096,6.696-5.711"/>
				<path style="fill:#E1AE8D;" d="M473.739,237.381c0,0-8.898,17.918-18.835,13.349c-9.937-4.569-1.066-20.629,3.56-26.15
					C463.09,219.059,476.792,232.357,473.739,237.381z"/>
				<circle style="fill:#F3D78A;" cx="483.875" cy="226.101" r="8.185"/>
				<path style="fill:#F3D78A;" d="M458.464,224.58c0,0,9.1-4.283,11.001,5.064c1.32,6.492-2.01,14.55,1.916,14.72
					c3.926,0.17,11.649-7.672,8.63-16.678C476.992,218.678,461.211,215.453,458.464,224.58z"/>
				<path style="fill:#E1AE8D;" d="M468.741,239.971c0,0,2.287-4.584,3.962-2.638c1.676,1.946-0.327,5.849-2.755,6.906
					C467.521,245.296,468.741,239.971,468.741,239.971z"/>
				<g>
					<path style="fill:#2E2427;" d="M454.18,241.841c-0.153,0-0.299-0.075-0.389-0.204c-0.111-0.163-0.111-0.378,0.004-0.539
						l4.213-5.974c0.149-0.213,0.444-0.262,0.657-0.114c0.213,0.15,0.263,0.444,0.113,0.657l-3.478,4.933l2.186-0.552
						c0.254-0.064,0.508,0.089,0.572,0.342c0.064,0.253-0.088,0.509-0.342,0.573l-3.421,0.864
						C454.257,241.837,454.219,241.841,454.18,241.841z"/>
					<path style="fill:#2E2427;" d="M456.813,246.013c-0.204,0-0.401-0.04-0.585-0.132c-0.717-0.361-0.965-1.339-0.76-2.991
						c0.031-0.259,0.269-0.451,0.526-0.41c0.259,0.032,0.442,0.268,0.41,0.526c-0.164,1.324,0.02,1.918,0.248,2.033
						c0.426,0.208,1.515-0.516,2.148-1.119c0.188-0.18,0.486-0.173,0.667,0.016c0.18,0.188,0.172,0.487-0.017,0.666
						C459.17,244.869,457.905,246.013,456.813,246.013z"/>
					<circle style="fill:#2E2427;" cx="464.003" cy="237.67" r="1.528"/>
					<circle style="fill:#2E2427;" cx="455.931" cy="234.065" r="1.528"/>
				</g>
				<path style="fill:#E1AE8D;" d="M457.005,248.507c0,0-0.34,2.806-1.107,10.034c0,0-0.1,2.859,2.23,5.19
					c2.331,2.331,12.334-1.848,13.344-3.529l-0.942-18.889C470.531,241.312,459.042,245.385,457.005,248.507z"/>
				<path style="fill:#F3D78A;" d="M463.806,223.121c0,0-2.585,10.016,5.695,15.579C469.501,238.7,475.454,223.52,463.806,223.121z"
					/>
				<path style="fill:#F3D78A;" d="M452.097,231.856c0,0,3.203-12.939,13.947-12.7C466.044,219.155,463.495,227.115,452.097,231.856
					z"/>
				<path style="fill:#2E2427;" d="M472.357,234.267c-0.066,0-0.133-0.014-0.196-0.043c-8.681-3.974-7.426-10.223-7.412-10.286
					c0.055-0.254,0.31-0.413,0.559-0.359c0.254,0.054,0.416,0.305,0.363,0.559c-0.048,0.226-1.077,5.585,6.882,9.228
					c0.237,0.108,0.341,0.388,0.233,0.625C472.707,234.165,472.536,234.267,472.357,234.267z"/>
				<path style="fill:#2E2427;" d="M476.578,230.334c-2.215,0-6.144-1.037-9.859-7.227c-0.134-0.223-0.062-0.513,0.161-0.647
					c0.224-0.132,0.513-0.062,0.648,0.162c5.043,8.403,10.295,6.644,10.516,6.565c0.246-0.087,0.516,0.04,0.603,0.283
					c0.088,0.244-0.036,0.514-0.279,0.603C478.288,230.103,477.624,230.334,476.578,230.334z"/>
				<path style="fill:#2E2427;" d="M455.647,228.19c-0.064,0-0.127-0.012-0.189-0.039c-0.239-0.104-0.347-0.382-0.243-0.621
					c2.191-5.026,7.424-5.405,7.646-5.418c0.252-0.011,0.482,0.182,0.499,0.441c0.016,0.26-0.181,0.484-0.441,0.501
					c-0.198,0.013-4.883,0.367-6.84,4.854C456.002,228.084,455.829,228.19,455.647,228.19z"/>
			</g>
			<path style="fill:#2E2427;" d="M458.642,251.875c-1.226,0-2.014-0.265-2.096-0.294c-0.245-0.087-0.374-0.355-0.288-0.6
				c0.087-0.245,0.353-0.378,0.601-0.29c0.193,0.065,4.813,1.579,9.542-3.869c0.172-0.197,0.47-0.218,0.666-0.047
				c0.196,0.17,0.217,0.468,0.047,0.665C463.894,251.151,460.669,251.875,458.642,251.875z"/>
		</g>
		<g>
			<polygon style="fill:#F8F4E2;" points="438.006,313.067 431.942,272.431 376.648,272.431 382.756,313.067 			"/>
			
				<rect x="382.756" y="309.216" transform="matrix(-1 -4.490687e-11 4.490687e-11 -1 834.1694 624.1539)" style="fill:#F8F4E2;" width="68.657" height="5.723"/>
		</g>
		<path style="fill:#E1AE8D;" d="M476.807,257.067c0,0-1.547,12.244-8.373,15.364c-6.826,3.12-18.176,3.12-19.836,0
			c-1.66-3.12,0.843-12.8,0.843-12.8S459.125,253.61,476.807,257.067z"/>
		<path style="fill:#2E2427;" d="M437.682,355.951c-0.24,0-0.445-0.182-0.469-0.426c-0.006-0.063-0.611-6.322-0.455-12.729
			c0.214-8.789,1.721-13.669,4.48-14.507c0.252-0.077,0.513,0.065,0.589,0.314c0.076,0.25-0.065,0.513-0.314,0.589
			c-4.726,1.433-4.027,19.428-3.36,26.241c0.025,0.259-0.165,0.49-0.424,0.516C437.713,355.95,437.697,355.951,437.682,355.951z"/>
		<path style="fill:#E1AE8D;" d="M492.554,266.673c0,0,38.786,21.176,22.109,43.953c-7.129,9.737-50.684-2.048-59.016,0
			c-8.332,2.048-7.049,3.454-8.332,2.048c-1.283-1.406,2.992-2.689,2.992-2.689s-6.691,1.966-6.774,0.984s4.423-2.634,4.423-2.634
			s-8.675,1.193-6.582-0.503c2.092-1.696,4.321-6.485,14.912-7.618c10.591-1.133,43.624,2.737,44.265,0
			c0.641-2.737-11.919-13.711-11.919-13.711L492.554,266.673z"/>
		<path style="fill:#427B83;" d="M495.536,292.749c0,0,10.58-14.534,10.758-17.979c0.178-3.444-17.269-13.656-22.418-15.416
			c0,0-6.256,15.707-4.86,19.889C480.412,283.425,493.234,292.734,495.536,292.749z"/>
		<path style="fill:#2E2427;" d="M488.632,286.975c-0.218,0-0.414-0.153-0.461-0.375c-3.475-16.547-6.99-24.402-7.025-24.479
			c-0.108-0.238-0.003-0.517,0.234-0.625c0.238-0.107,0.517-0.002,0.625,0.234c0.036,0.078,3.59,8.012,7.089,24.676
			c0.053,0.255-0.11,0.505-0.365,0.558C488.697,286.972,488.664,286.975,488.632,286.975z"/>
		<path style="fill:#2E2427;" d="M447.936,298.229c-1.225,0-2.271-0.18-3.122-0.422c-2.666-0.757-4.056-2.25-4.114-2.312
			c-0.175-0.192-0.162-0.489,0.029-0.665c0.191-0.177,0.49-0.163,0.666,0.027c0.207,0.224,5.195,5.429,14.655-0.043
			c0.222-0.131,0.513-0.054,0.644,0.172c0.131,0.225,0.053,0.514-0.172,0.644C453.097,297.612,450.207,298.229,447.936,298.229z"/>
		<path style="fill:#2E2427;" d="M465.861,297.182c-4.358,0-6.771-2.131-6.924-2.272c-0.193-0.175-0.205-0.472-0.031-0.665
			c0.176-0.193,0.474-0.206,0.666-0.032c0.222,0.2,5.544,4.844,15.035-0.648c0.221-0.132,0.513-0.054,0.644,0.172
			c0.131,0.225,0.053,0.514-0.172,0.644C471.421,296.497,468.329,297.182,465.861,297.182z"/>
		<path style="fill:#2E2427;" d="M436.183,286.975c-0.26,0-0.471-0.21-0.472-0.471c-0.017-7.334,4.801-12.178,5.006-12.381
			c0.186-0.183,0.485-0.181,0.667,0.004c0.183,0.185,0.181,0.484-0.004,0.667c-0.047,0.047-4.741,4.78-4.726,11.708
			C436.655,286.763,436.444,286.974,436.183,286.975L436.183,286.975z"/>
		<path style="fill:#2E2427;" d="M452.759,413.274c-0.014,0-0.028-0.001-0.041-0.002c-0.26-0.022-0.452-0.251-0.429-0.51
			c0.169-1.957,4.195-48.022,7.474-55.277c2.473-5.47,9.23-5.709,16.385-5.962c5.09-0.18,10.353-0.366,14.365-2.437
			c9.273-4.785,6.716-12.277,6.69-12.352c-0.087-0.246,0.04-0.516,0.285-0.603c0.246-0.086,0.516,0.04,0.603,0.285
			c0.029,0.083,2.854,8.349-7.145,13.509c-4.201,2.168-9.571,2.357-14.765,2.542c-6.854,0.242-13.327,0.471-15.558,5.407
			c-3.214,7.11-7.354,54.492-7.395,54.969C453.207,413.089,453.001,413.274,452.759,413.274z"/>
		<path style="fill:#2E2427;" d="M490.729,349.977c-0.141,0-0.28-0.063-0.373-0.183c-3.949-5.104-3.728-17.085-3.717-17.593
			c0.006-0.261,0.261-0.459,0.482-0.462c0.261,0.006,0.467,0.222,0.461,0.482c-0.003,0.122-0.225,12.155,3.52,16.996
			c0.159,0.205,0.122,0.502-0.085,0.661C490.932,349.945,490.831,349.977,490.729,349.977z"/>
		<circle style="fill:#E3E0D0;" cx="404.978" cy="292.559" r="5.38"/>
	</g>
	<g>
		<path style="fill:#85361E;" d="M217.675,252.261c0,0,21.425,5.229,32.273,20.169c10.848,14.941,3.772,33.004,3.772,33.004h-13.454
			c0,0,16.177-23.891-17.728-30.145L217.675,252.261z"/>
		<path style="fill:#E7B119;" d="M212.59,249.745c0,0,17.309,1.649,30.919,15.638c0,0-5.517,18.258-9.43,18.919
			c-3.913,0.661-21.514-9.532-21.514-9.532L212.59,249.745z"/>
		<path style="fill:#2E2427;" d="M146.378,431.613c-0.155,0-0.312-0.018-0.469-0.059c-1.01-0.259-1.618-1.286-1.36-2.296
			l18.177-70.975c0.259-1.009,1.29-1.62,2.296-1.36c1.01,0.259,1.618,1.286,1.36,2.296l-18.177,70.975
			C147.986,431.047,147.219,431.613,146.378,431.613z"/>
		<path style="fill:#2E2427;" d="M212.589,431.613c-0.842,0-1.608-0.566-1.827-1.419l-18.178-70.975
			c-0.259-1.01,0.35-2.037,1.36-2.296c1.007-0.262,2.038,0.351,2.296,1.36l18.178,70.975c0.259,1.01-0.35,2.037-1.36,2.296
			C212.902,431.595,212.744,431.613,212.589,431.613z"/>
		<path style="fill:#427B83;" d="M144.464,339.587c0,0-6.409-54.498,33.145-62.063s32.928,31.749,46.835,44.169
			s18.874,40.911-28.259,46.789C149.053,374.361,144.693,342.442,144.464,339.587z"/>
		<path style="fill:#D47974;" d="M189.709,235.551c3.526-0.192,0.877-4.402,0.877-4.402s-3.64-7.234-6.481-5.953"/>
		<path style="fill:#85361E;" d="M184.665,226.949c0,0,8.232,18.233,18.331,14.033c10.099-4.2,1.825-20.576-2.595-26.263
			S181.798,221.816,184.665,226.949z"/>
		<g>
			<path style="fill:#2E2427;" d="M204.064,232.126c-0.044,0-0.088-0.006-0.133-0.019l-3.387-0.989
				c-0.25-0.073-0.393-0.335-0.32-0.585c0.073-0.25,0.332-0.396,0.585-0.321l2.164,0.632l-3.295-5.058
				c-0.142-0.218-0.08-0.51,0.138-0.653c0.217-0.141,0.51-0.081,0.652,0.138l3.991,6.125c0.108,0.165,0.101,0.38-0.017,0.539
				C204.352,232.058,204.21,232.126,204.064,232.126z"/>
			<path style="fill:#2E2427;" d="M201.318,236.199c-1.105,0-2.365-1.227-2.64-1.508c-0.181-0.187-0.178-0.485,0.009-0.667
				c0.185-0.181,0.485-0.178,0.666,0.008c0.613,0.626,1.687,1.39,2.106,1.198c0.231-0.106,0.438-0.693,0.322-2.022
				c-0.023-0.26,0.169-0.488,0.429-0.511c0.249-0.028,0.488,0.169,0.51,0.429c0.145,1.659-0.14,2.627-0.87,2.961
				C201.681,236.165,201.501,236.199,201.318,236.199z"/>
			<circle style="fill:#2E2427;" cx="194.383" cy="227.595" r="1.528"/>
			<circle style="fill:#2E2427;" cx="202.582" cy="224.291" r="1.528"/>
		</g>
		<path style="fill:#2E2427;" d="M202.875,218.43c0,0-1.988-14.157-10.737-14.064c-20.885,0.224-10.152,11.882-13.497,14.819
			c-10.652,9.357,7.696,18.389,9.559,14.756c1.864-3.633-3.697-12.425,1.481-15.977C196.317,213.413,198.834,211.722,202.875,218.43
			z"/>
		<path style="fill:#85361E;" d="M189.564,229.72c0,0-2.117-4.665-3.863-2.782s0.112,5.857,2.499,7.003
			S189.564,229.72,189.564,229.72z"/>
		<path style="fill:#F8F4E2;" d="M195.625,213.993c-0.019,0-0.039-0.001-0.058-0.004c-0.259-0.031-0.443-0.267-0.411-0.526
			c0.257-2.1-0.167-3.699-1.259-4.754c-2.177-2.1-6.321-1.469-6.363-1.463c-0.252,0.043-0.498-0.134-0.54-0.391
			c-0.041-0.257,0.134-0.499,0.392-0.54c0.188-0.03,4.654-0.707,7.166,1.715c1.317,1.272,1.836,3.138,1.54,5.548
			C196.062,213.818,195.86,213.993,195.625,213.993z"/>
		<path style="fill:#F8F4E2;" d="M192.853,215.114c-0.2,0-0.386-0.128-0.45-0.329c-1.396-4.401-6.807-4.769-6.861-4.773
			c-0.26-0.015-0.459-0.238-0.444-0.498c0.015-0.259,0.214-0.456,0.497-0.444c0.249,0.014,6.112,0.402,7.707,5.428
			c0.079,0.248-0.059,0.514-0.307,0.592C192.948,215.107,192.9,215.114,192.853,215.114z"/>
		<path style="fill:#F8F4E2;" d="M189.08,217.188c-0.182,0-0.356-0.106-0.433-0.284c-1.579-3.641-5.247-2.867-5.405-2.829
			c-0.249,0.057-0.507-0.103-0.564-0.356c-0.057-0.253,0.1-0.506,0.355-0.564c0.043-0.01,4.583-0.996,6.48,3.373
			c0.103,0.239-0.006,0.517-0.245,0.62C189.206,217.176,189.143,217.188,189.08,217.188z"/>
		<path style="fill:#F8F4E2;" d="M181.36,226.397c-0.477,0-0.999-0.054-1.572-0.175c-0.255-0.054-0.418-0.304-0.364-0.56
			c0.054-0.255,0.308-0.414,0.559-0.363c4.204,0.894,5.107-2.361,5.143-2.499c0.067-0.252,0.323-0.403,0.577-0.336
			c0.251,0.066,0.402,0.325,0.335,0.576C186.027,223.078,185.101,226.397,181.36,226.397z"/>
		<path style="fill:#E7B119;" d="M174.072,247.68c0,0,25.22-3.949,41.019,2.703c15.799,6.652,12.571,84.086,12.571,84.086
			l-59.365,1.668C168.297,336.137,149.415,261.359,174.072,247.68z"/>
		<path style="fill:#85361E;" d="M168.297,336.137c0,0,52.153-15.236,64.73-13.035s37.236,65.024,37.236,65.024l10.285,2.08
			l-10.285,8.817c0,0-37.979-53.542-45.84-53.922s-38.661,10.845-42.434,9.902C178.215,354.059,168.297,336.137,168.297,336.137z"/>
		<path style="fill:#85361E;" d="M193.157,328.741c0,0,38.304-3.438,47.108,3.479c8.804,6.917-5.918,91.202-4.458,91.154
			c1.46-0.048,9.052,5.738,9.052,5.738l-15.25,0c0,0-10.691-77.083-13.52-80.227s-35.769,3.727-40.8-2.247
			C170.259,340.664,193.157,328.741,193.157,328.741z"/>
		<g>
			<path style="fill:#427B83;" d="M227.205,419.911c0,0,11.219-0.776,11.306,0.058s-0.041,4.868,0.379,5.514
				c0.42,0.645,10.605,4.178,11.052,5.964c0.447,1.787-22.161,0.918-22.161,0.918L227.205,419.911z"/>
			<path style="fill:#2E2427;" d="M233.026,426.531c-0.171,0-0.337-0.094-0.42-0.258c-0.119-0.232-0.026-0.516,0.206-0.634
				l5.562-2.831c0.23-0.117,0.516-0.027,0.634,0.206c0.119,0.232,0.026,0.516-0.206,0.634l-5.562,2.831
				C233.172,426.515,233.099,426.531,233.026,426.531z"/>
			<path style="fill:#2E2427;" d="M235.214,429.146c-0.139,0-0.276-0.061-0.369-0.179c-0.162-0.204-0.128-0.5,0.076-0.662
				l5.052-4.007c0.203-0.162,0.5-0.129,0.662,0.076c0.162,0.204,0.128,0.5-0.076,0.662l-5.052,4.007
				C235.421,429.113,235.317,429.146,235.214,429.146z"/>
			<path style="fill:#2E2427;" d="M238.093,430.854c-0.131,0-0.262-0.054-0.355-0.16c-0.171-0.196-0.152-0.495,0.043-0.666
				l4.206-3.688c0.196-0.171,0.495-0.152,0.666,0.043c0.171,0.196,0.152,0.495-0.043,0.666l-4.206,3.688
				C238.314,430.815,238.204,430.854,238.093,430.854z"/>
		</g>
		<g>
			<path style="fill:#427B83;" d="M261.957,391.316c0,0,8.707-7.118,9.259-6.489c0.553,0.63,2.78,3.996,3.496,4.28
				s11.069-2.721,12.466-1.521c1.397,1.2-17.553,13.559-17.553,13.559L261.957,391.316z"/>
			<path style="fill:#2E2427;" d="M270.262,393.44c-0.075,0-0.149-0.017-0.219-0.054c-0.23-0.121-0.32-0.406-0.198-0.637
				l2.903-5.525c0.121-0.231,0.407-0.319,0.637-0.198c0.23,0.121,0.32,0.406,0.198,0.637l-2.903,5.525
				C270.596,393.348,270.432,393.44,270.262,393.44z"/>
			<path style="fill:#2E2427;" d="M273.559,394.31c-0.043,0-0.087-0.006-0.132-0.018c-0.251-0.074-0.394-0.335-0.322-0.585
				l1.806-6.19c0.074-0.25,0.332-0.392,0.585-0.322c0.251,0.074,0.394,0.335,0.321,0.585l-1.806,6.19
				C273.952,394.176,273.764,394.31,273.559,394.31z"/>
			<path style="fill:#2E2427;" d="M276.895,394.039c-0.036,0-0.073-0.004-0.11-0.013c-0.253-0.061-0.41-0.315-0.349-0.568
				l1.301-5.441c0.06-0.253,0.312-0.413,0.568-0.349c0.253,0.061,0.41,0.315,0.349,0.568l-1.301,5.441
				C277.302,393.893,277.108,394.039,276.895,394.039z"/>
		</g>
		<path style="fill:#84AE9F;" d="M168.297,336.137c0,0,49.106-26.965,67.99-14.975c6.679,4.241,31.732,53.742,30.74,58.098
			s-8.252,5.758-11.882,5.529c-3.63-0.23-32.101-41.734-36.181-41.105c-4.08,0.629-16.065,11.565-32.292,12.25
			C167.723,356.732,168.297,336.137,168.297,336.137z"/>
		<path style="fill:#84AE9F;" d="M224.422,412.553c0,0,9.499,1.076,13.318-0.078c3.819-1.153,8.221-64.256,4.133-69.181
			c-4.088-4.925-64.111-4.309-65.071,0c-0.959,4.309,7.242,12.898,9.87,12.638c2.628-0.26,28.41,1.271,28.41,1.271
			S220.602,413.25,224.422,412.553z"/>
		<path style="fill:#2E2427;" d="M232.14,409.599c-3.535,0-7.508-0.338-7.759-0.36c-0.26-0.022-0.451-0.251-0.429-0.51
			c0.022-0.26,0.263-0.448,0.51-0.429c0.092,0.008,9.257,0.789,12.033,0.016c0.251-0.075,0.511,0.076,0.581,0.327
			c0.07,0.251-0.076,0.511-0.327,0.581C235.737,409.506,233.999,409.599,232.14,409.599z"/>
		<path style="fill:#2E2427;" d="M227.204,413.274c-0.229,0-0.431-0.169-0.465-0.403c-0.069-0.464-6.916-46.507-9.316-53.974
			c-0.08-0.249,0.056-0.514,0.304-0.593c0.247-0.083,0.514,0.056,0.593,0.304c2.424,7.541,9.07,52.227,9.351,54.126
			c0.039,0.258-0.139,0.497-0.397,0.535C227.251,413.272,227.227,413.274,227.204,413.274z"/>
		<path style="fill:#2E2427;" d="M243.509,370.924c-0.248,0-0.455-0.193-0.471-0.443c-0.02-0.329-2.145-33.028-12.275-39.992
			c-1.917-1.318-3.945-1.614-6.2-0.906c-16.15,5.078-37.344,26.464-37.555,26.68c-0.182,0.187-0.483,0.187-0.667,0.006
			c-0.186-0.183-0.188-0.482-0.006-0.667c0.214-0.217,21.57-21.769,37.944-26.918c2.517-0.794,4.878-0.447,7.019,1.027
			c10.506,7.224,12.597,39.348,12.681,40.712c0.016,0.26-0.181,0.484-0.442,0.499C243.529,370.924,243.519,370.924,243.509,370.924z
			"/>
		<path style="fill:#84AE9F;" d="M168.297,328.049"/>
		<path style="fill:#85361E;" d="M200.977,238.683c0,0,0.236,2.817,0.737,10.068c0,0-0.005,2.86-2.42,5.104
			c-2.415,2.244-12.258-2.3-13.205-4.018l1.636-18.842C187.726,230.995,199.057,235.488,200.977,238.683z"/>
		<g>
			<polygon style="fill:#F8F4E2;" points="225.972,313.067 232.037,272.431 287.331,272.431 281.222,313.067 			"/>
			<rect x="212.565" y="309.216" style="fill:#F8F4E2;" width="68.657" height="5.723"/>
		</g>
		<path style="fill:#85361E;" d="M172.838,248.417c0,0-63.145,23.317-37.086,60.799c10.195,14.664,66.714-3.005,71.304-4.721
			c2.448-0.915,9.082,4.721,10.815,4.721s0-3.464,0-3.464s3.827,3.464,4.667,3.464s-1.676-4.407-1.676-4.407
			s5.505,5.345,5.111,3.144c-0.394-2.201-3.714-13.417-15.855-17.505c-12.141-4.088-51.573,9.913-53.713,5.557
			c-4.278-8.708,20.321-20.123,20.321-20.123L172.838,248.417z"/>
		<path style="fill:#2E2427;" d="M199.727,242.266c-1.757,0-4.851-0.878-9.156-5.396c-0.18-0.188-0.172-0.487,0.017-0.666
			c0.188-0.179,0.486-0.173,0.667,0.016c6.31,6.624,9.652,4.897,9.687,4.878c0.223-0.124,0.512-0.047,0.64,0.178
			c0.127,0.224,0.054,0.508-0.169,0.638C201.355,241.949,200.783,242.266,199.727,242.266z"/>
		<path style="fill:#E7B119;" d="M182.733,277.088c0,0,2.375-30.201-0.521-30.26c-15.33-0.312-32.021,8.507-43.988,19.845
			c-5.032,4.767,19.123,24.789,20.177,23.552C159.456,288.987,176.449,278.422,182.733,277.088z"/>
		<path style="fill:#2E2427;" d="M198.24,258.876c-4.488,0-13.789-5.947-14.21-6.218c-0.219-0.141-0.283-0.433-0.142-0.652
			c0.141-0.219,0.433-0.282,0.652-0.142c2.981,1.918,11.371,6.724,14.363,6c3.512-0.862,4.69-5.662,4.702-5.711
			c0.06-0.253,0.31-0.407,0.567-0.35c0.253,0.06,0.41,0.313,0.35,0.567c-0.052,0.221-1.318,5.41-5.394,6.41
			C198.86,258.846,198.563,258.876,198.24,258.876z"/>
		<circle style="fill:#E3E0D0;" cx="258.658" cy="292.559" r="5.38"/>
		<path style="fill:#2E2427;" d="M164.554,283.441c-0.002,0-0.004,0-0.006,0c-0.26-0.004-0.469-0.217-0.465-0.478
			c0.213-16.297,5.906-28.577,5.964-28.699c0.111-0.236,0.391-0.335,0.627-0.226c0.236,0.111,0.337,0.391,0.226,0.627
			c-0.056,0.121-5.663,12.227-5.873,28.311C165.022,283.234,164.812,283.441,164.554,283.441z"/>
		<path style="fill:#2E2427;" d="M225.972,280.071c-0.208,0-0.398-0.138-0.455-0.347c-4.779-17.54-10.693-23.329-10.752-23.385
			c-0.189-0.181-0.196-0.479-0.017-0.667c0.181-0.189,0.479-0.194,0.667-0.017c0.25,0.239,6.164,6.029,11.012,23.82
			c0.068,0.251-0.08,0.511-0.331,0.579C226.055,280.065,226.013,280.071,225.972,280.071z"/>
	</g>
	<g>
		<path style="fill:#2E2427;" d="M119.388,431.613c-0.104,0-0.209-0.008-0.316-0.027c-1.027-0.173-1.72-1.146-1.546-2.174
			l18.838-111.638c0.172-1.027,1.139-1.726,2.174-1.546c1.027,0.173,1.72,1.146,1.546,2.174l-18.838,111.638
			C121.092,430.962,120.293,431.613,119.388,431.613z"/>
		<path style="fill:#2E2427;" d="M544.164,431.613c-0.905,0-1.703-0.651-1.858-1.572l-18.838-111.638
			c-0.174-1.028,0.519-2.001,1.546-2.174c1.035-0.181,2.001,0.519,2.174,1.546l18.838,111.638c0.174,1.028-0.519,2.001-1.546,2.174
			C544.373,431.605,544.268,431.613,544.164,431.613z"/>
		<rect x="129.124" y="315.158" style="fill:#42395E;" width="405.623" height="10.831"/>
	</g>
	<g>
		<path style="fill:#E1AE8D;" d="M311.484,267.079c0,0,26.976,2.007,33.242-3.23c15.074-12.601,21.235-49.68,25.775-50.667
			c1.921-0.418-1.217,7.666-1.217,7.666s5.854-11.411,5.881-6.39c0.015,2.867-1.45,8.193-1.45,8.193s3.71-11.184,5.21-5.778
			c1.5,5.406-11.627,46.187-18.768,56.109s-45.209,11.892-45.209,11.892L311.484,267.079z"/>
		<path style="fill:#E1AE8D;" d="M345.06,336.575c0,0,46.174-7.514,56.517,5.535s-30.544,73.93-31.496,81.996l-7.754,4.432
			c0,0,3.123-27.863,4.906-38.332c2.781-16.332,7.169-26.535,7.169-26.535l-25.649,3.25L345.06,336.575z"/>
		<g>
			<path style="fill:#CA4F24;" d="M361.41,419.911c0,0,11.219-0.776,11.306,0.058s-0.041,4.868,0.379,5.514
				s10.605,4.178,11.052,5.964c0.447,1.787-22.161,0.918-22.161,0.918L361.41,419.911z"/>
			<path style="fill:#2E2427;" d="M367.232,426.531c-0.171,0-0.337-0.094-0.42-0.258c-0.119-0.232-0.026-0.516,0.206-0.634
				l5.562-2.831c0.229-0.117,0.516-0.027,0.634,0.206c0.119,0.232,0.026,0.516-0.206,0.634l-5.562,2.831
				C367.377,426.515,367.305,426.531,367.232,426.531z"/>
			<path style="fill:#2E2427;" d="M369.42,429.146c-0.139,0-0.276-0.061-0.369-0.179c-0.162-0.204-0.128-0.5,0.076-0.662
				l5.052-4.007c0.204-0.162,0.501-0.129,0.662,0.076c0.162,0.204,0.128,0.5-0.076,0.662l-5.052,4.007
				C369.626,429.113,369.523,429.146,369.42,429.146z"/>
			<path style="fill:#2E2427;" d="M372.298,430.854c-0.131,0-0.262-0.054-0.355-0.16c-0.171-0.196-0.152-0.495,0.043-0.666
				l4.206-3.688c0.197-0.171,0.495-0.152,0.666,0.043c0.171,0.196,0.152,0.495-0.043,0.666l-4.206,3.688
				C372.519,430.815,372.409,430.854,372.298,430.854z"/>
		</g>
		<path style="fill:#E1AE8D;" d="M304.207,336.575c0,0,46.174-7.514,56.517,5.535s-30.544,73.93-31.496,81.996l-7.754,4.432
			c0,0,3.123-27.863,4.906-38.332c2.781-16.332,7.169-26.535,7.169-26.535l-25.649,3.25L304.207,336.575z"/>
		<g>
			<path style="fill:#CA4F24;" d="M320.557,419.911c0,0,11.219-0.776,11.306,0.058s-0.041,4.868,0.379,5.514
				s10.605,4.178,11.052,5.964c0.447,1.787-22.161,0.918-22.161,0.918L320.557,419.911z"/>
			<path style="fill:#2E2427;" d="M326.379,426.531c-0.171,0-0.337-0.094-0.42-0.258c-0.119-0.232-0.026-0.516,0.206-0.634
				l5.562-2.831c0.229-0.117,0.517-0.027,0.634,0.206c0.119,0.232,0.026,0.516-0.206,0.634l-5.562,2.831
				C326.525,426.515,326.452,426.531,326.379,426.531z"/>
			<path style="fill:#2E2427;" d="M328.567,429.146c-0.139,0-0.276-0.061-0.369-0.179c-0.162-0.204-0.128-0.5,0.076-0.662
				l5.051-4.007c0.204-0.162,0.5-0.129,0.662,0.076c0.162,0.204,0.128,0.5-0.076,0.662l-5.051,4.007
				C328.774,429.113,328.67,429.146,328.567,429.146z"/>
			<path style="fill:#2E2427;" d="M331.446,430.854c-0.131,0-0.262-0.054-0.355-0.16c-0.171-0.196-0.152-0.495,0.043-0.666
				l4.206-3.688c0.197-0.171,0.495-0.152,0.666,0.043c0.171,0.196,0.152,0.495-0.043,0.666l-4.206,3.688
				C331.667,430.815,331.556,430.854,331.446,430.854z"/>
		</g>
		<g>
			<path style="fill:#D47974;" d="M324.076,249.745c3.506-0.42,0.59-4.45,0.59-4.45s-4.1-6.984-6.853-5.521"/>
			<path style="fill:#E1AE8D;" d="M318.486,241.488c0,0,9.395,17.662,19.201,12.817c9.806-4.845,0.489-20.651-4.29-26.04
				C328.618,222.876,315.293,236.551,318.486,241.488z"/>
			<path style="fill:#E1AE8D;" d="M335.523,252.141c0,0,0.418,2.796,1.387,9.999c0,0,0.18,2.855-2.084,5.25
				c-2.265,2.395-12.381-1.502-13.437-3.155l0.413-18.908C321.802,245.327,333.4,249.077,335.523,252.141z"/>
			<path style="fill:#CA4F24;" d="M336.106,231.808c0,0-2.9-13.999-11.625-13.339c-20.826,1.575-9.362,12.514-12.509,15.662
				c-10.024,10.027,8.87,17.852,10.494,14.107c1.625-3.746-4.493-12.16,0.444-16.04C329.237,227.226,331.64,225.376,336.106,231.808
				z"/>
			<path style="fill:#E1AE8D;" d="M321.908,243.785c0,0-4.603-2.247-4.75,0.316s3.818,4.444,6.388,3.806
				C326.115,247.27,321.908,243.785,321.908,243.785z"/>
			<path style="fill:#2E2427;" d="M328.553,227.851c-0.008,0-0.018,0-0.027-0.001c-0.261-0.015-0.459-0.238-0.444-0.498
				c0.121-2.112-0.405-3.681-1.564-4.663c-2.308-1.954-6.403-1.057-6.444-1.048c-0.258,0.058-0.508-0.103-0.564-0.356
				c-0.058-0.254,0.101-0.507,0.356-0.564c0.187-0.042,4.598-1.007,7.262,1.249c1.397,1.184,2.035,3.013,1.896,5.437
				C329.009,227.657,328.801,227.851,328.553,227.851z"/>
			<path style="fill:#2E2427;" d="M325.861,229.148c-0.189,0-0.367-0.114-0.439-0.3c-1.677-4.3-7.054-4.291-7.157-4.318
				c-0.001,0-0.003,0-0.004,0c-0.259,0-0.47-0.209-0.472-0.467c-0.002-0.261,0.207-0.473,0.468-0.476
				c0.247-0.018,6.128,0.008,8.043,4.919c0.095,0.243-0.026,0.516-0.268,0.611C325.976,229.138,325.918,229.148,325.861,229.148z"/>
			<path style="fill:#2E2427;" d="M322.23,231.463c-0.17,0-0.336-0.094-0.42-0.256c-1.812-3.533-5.424-2.518-5.577-2.474
				c-0.249,0.074-0.511-0.069-0.585-0.319c-0.074-0.249,0.067-0.511,0.316-0.585c0.045-0.014,4.509-1.292,6.686,2.947
				c0.119,0.232,0.027,0.516-0.204,0.635C322.376,231.446,322.302,231.463,322.23,231.463z"/>
			<path style="fill:#2E2427;" d="M314.72,241.164c-0.357,0-0.74-0.027-1.15-0.087c-0.257-0.037-0.436-0.276-0.399-0.534
				c0.038-0.259,0.278-0.44,0.535-0.399c4.236,0.616,4.942-2.687,4.97-2.828c0.049-0.256,0.303-0.423,0.553-0.372
				c0.256,0.05,0.423,0.298,0.372,0.554C319.594,237.537,318.832,241.164,314.72,241.164z"/>
			<path style="fill:#CA4F24;" d="M321.102,238.525c0,0,5.096,9.004,8.741,10.772c3.645,1.768-0.042-2.134,6.348-4.805
				c2.808-1.174,4.764-1.544,5.713,0.911c0.949,2.455,2.022,7.95-2.249,10.948c-4.272,2.999-19.515-6.694-19.859-16.268
				L321.102,238.525z"/>
			<g>
				<path style="fill:#2E2427;" d="M338.148,245.4c-0.034,0-0.068-0.004-0.102-0.012l-3.444-0.768
					c-0.254-0.057-0.415-0.309-0.358-0.563c0.056-0.253,0.306-0.415,0.563-0.357l2.202,0.491l-3.616-4.834
					c-0.156-0.209-0.113-0.504,0.095-0.66c0.207-0.157,0.503-0.114,0.66,0.095l4.378,5.854c0.118,0.158,0.125,0.373,0.018,0.538
					C338.456,245.321,338.306,245.4,338.148,245.4z"/>
				<path style="fill:#2E2427;" d="M335.601,249.644c-1.081,0-2.347-1.082-2.631-1.338c-0.193-0.175-0.209-0.473-0.034-0.666
					c0.175-0.193,0.473-0.209,0.666-0.035c0.65,0.585,1.77,1.279,2.178,1.059c0.225-0.121,0.392-0.72,0.192-2.038
					c-0.04-0.258,0.137-0.498,0.395-0.538c0.254-0.039,0.497,0.138,0.537,0.395c0.251,1.646,0.03,2.63-0.676,3.011
					C336.033,249.6,335.822,249.644,335.601,249.644z"/>
				<circle style="fill:#2E2427;" cx="328.226" cy="241.504" r="1.528"/>
				<circle style="fill:#2E2427;" cx="336.193" cy="237.675" r="1.528"/>
			</g>
		</g>
		<path style="fill:#42395E;" d="M292.55,359.806c0,0-12.861-89.123,3.773-95.232c16.634-6.108,57.54-0.558,61.314,5.602
			s3.773,89.857,3.773,89.857L292.55,359.806z"/>
		<path style="fill:#E1AE8D;" d="M357.637,270.176c0,0,43.468,6.39,41.11,32.495c-1.481,16.392-37.865,12.267-37.865,12.267
			l-0.256-9.504c0,0,26.857,2.912,23.528-2.763s-26.516-5.982-26.516-5.982V270.176z"/>
		<path style="fill:#42395E;" d="M374.471,300.867c0,0,7.784-20.935,3.767-25.609c-4.017-4.674-31.175-9.874-31.175-9.874
			s-4.048,29.145,0,31.086C351.111,298.411,374.471,300.867,374.471,300.867z"/>
		<path style="fill:#2E2427;" d="M291.613,431.613c-0.155,0-0.312-0.018-0.469-0.059c-1.01-0.259-1.618-1.286-1.36-2.296
			l18.177-70.975c0.259-1.009,1.289-1.62,2.296-1.36c1.01,0.259,1.618,1.286,1.36,2.296l-18.177,70.975
			C293.222,431.047,292.454,431.613,291.613,431.613z"/>
		<path style="fill:#2E2427;" d="M357.825,431.613c-0.842,0-1.608-0.566-1.827-1.419L337.82,359.22
			c-0.259-1.01,0.35-2.037,1.36-2.296c1.006-0.262,2.038,0.351,2.296,1.36l18.178,70.975c0.259,1.01-0.35,2.037-1.36,2.296
			C358.137,431.595,357.979,431.613,357.825,431.613z"/>
		<path style="fill:#427B83;" d="M372.298,366.178c0,0,8.485-29.857,5.94-31.756c-2.545-1.899-27.11,1.276-30.144,1.714
			s0.659,30.784,0.659,30.784S359.577,364.926,372.298,366.178z"/>
		<path style="fill:#CA6E70;" d="M280.466,352.839c0,0-6.409-54.498,33.145-62.063s32.928,31.749,46.835,44.169
			s18.874,40.911-28.259,46.789C285.055,387.613,280.694,355.694,280.466,352.839z"/>
		<path style="fill:#2E2427;" d="M370.013,363.107c-0.035,0-0.071-0.004-0.107-0.012c-0.254-0.059-0.412-0.313-0.353-0.567
			c2.015-8.65,2.751-26.234,2.757-26.411c0.011-0.26,0.224-0.44,0.491-0.452c0.26,0.011,0.462,0.23,0.452,0.491
			c-0.007,0.178-0.747,17.851-2.781,26.586C370.422,362.959,370.227,363.107,370.013,363.107z"/>
		<path style="fill:#2E2427;" d="M360.303,296.941c-0.256,0-0.466-0.205-0.472-0.462c-0.166-7.769-1.208-23.196-3.961-25.971
			c-0.184-0.185-0.182-0.484,0.002-0.667c0.186-0.186,0.485-0.183,0.667,0.002c3.705,3.734,4.215,25.683,4.236,26.616
			c0.006,0.261-0.201,0.476-0.462,0.482C360.309,296.941,360.305,296.941,360.303,296.941z"/>
	</g>
</g>
<g id="DESIGNED_BY_FREEPIK_1_">
	<g>
		<g id="XMLID_319_">
			<g id="XMLID_338_">
				<path id="XMLID_346_" style="fill:#1C262D;" d="M385.104,465.465c-0.432,0.443-0.803,0.932-1.107,1.453l-0.465-0.24
					c-0.068-0.297-0.35-0.502-0.66-0.467c-0.33,0.039-0.566,0.34-0.529,0.67c0.039,0.332,0.34,0.568,0.67,0.529
					c0.066-0.008,0.127-0.025,0.184-0.053l0.451,0.234c-0.25,0.555-0.432,1.139-0.539,1.744l0.748,0.131
					c0.229-1.305,0.85-2.506,1.791-3.473L385.104,465.465z"/>
				<path id="XMLID_345_" style="fill:#1C262D;" d="M390.592,463.164c-0.172,0-0.342,0.006-0.51,0.016l-0.074-0.625
					c0.188-0.15,0.297-0.389,0.266-0.645c-0.045-0.393-0.402-0.674-0.795-0.629c-0.393,0.047-0.674,0.402-0.627,0.797
					c0.029,0.254,0.189,0.461,0.404,0.563l0.072,0.625c-0.713,0.115-1.402,0.332-2.059,0.645l0.326,0.686
					c0.935-0.447,1.941-0.674,2.996-0.674c0.496,0,0.992,0.053,1.475,0.158l0.16-0.742
					C391.691,463.223,391.143,463.164,390.592,463.164z"/>
				<path id="XMLID_344_" style="fill:#1C262D;" d="M397.193,465.711c0.332-0.041,0.566-0.342,0.525-0.672
					c-0.039-0.332-0.34-0.566-0.672-0.525c-0.309,0.037-0.535,0.303-0.529,0.607l-0.416,0.363c-0.418-0.43-0.891-0.813-1.408-1.139
					l-0.404,0.641c1.135,0.715,2.021,1.727,2.564,2.926l0.689-0.313c-0.25-0.555-0.566-1.072-0.941-1.545l0.402-0.352
					C397.064,465.715,397.129,465.719,397.193,465.711z"/>
				<path id="XMLID_343_" style="fill:#1C262D;" d="M390.045,473.371c-0.387,0.023-0.775,0.035-1.158,0.035
					c-0.879,0-1.732-0.061-2.478-0.18c-0.391-0.061-0.846-0.154-1.27-0.291c1.047,1.861,3.068,3.125,5.389,3.125
					c2.855,0,5.262-1.916,5.949-4.504c-0.682,0.449-1.506,0.826-2.459,1.123C392.838,473.047,391.463,473.287,390.045,473.371z"/>
				<path id="XMLID_339_" style="fill:#1C262D;" d="M390.592,464.68c-3.352,0-6.08,2.666-6.08,5.943c0,0.426,0.047,0.85,0.137,1.262
					c0.674,0.482,2.707,0.891,5.348,0.73c2.881-0.174,5.297-0.957,6.672-2.158c-0.004-0.195-0.02-0.391-0.045-0.582
					C396.244,466.914,393.65,464.68,390.592,464.68z M388.432,471.195c-1.02,0-1.85-0.83-1.85-1.85c0-1.022,0.83-1.852,1.85-1.852
					c1.02,0,1.85,0.83,1.85,1.852C390.281,470.365,389.451,471.195,388.432,471.195z M393.17,470.287
					c-0.75,0-1.361-0.611-1.361-1.361s0.611-1.359,1.361-1.359s1.359,0.609,1.359,1.359S393.92,470.287,393.17,470.287z"/>
			</g>
			<path id="XMLID_336_" style="fill:#1C262D;" d="M406.596,466.547c-0.295-0.115-0.807-0.309-1.383-0.238
				c-0.551,0.07-0.844,0.342-0.844,1.008v0.865h2.228v1.717h-2.228v5.455h-1.932v-5.455h-1.34v-1.717h1.34v-0.889
				c0-1.68,0.895-2.781,2.568-2.781c0.643,0,1.156,0.121,1.59,0.307V466.547z"/>
			<path id="XMLID_334_" style="fill:#1C262D;" d="M411.297,469.879c-0.176-0.029-0.358-0.047-0.525-0.047
				c-0.895,0-1.51,0.549-1.51,1.613v3.908h-1.932v-7.172h1.873v0.785c0.451-0.674,1.139-0.977,2.02-0.977
				c0.414,0,0.848,0.127,1.096,0.336L411.297,469.879z"/>
			<path id="XMLID_331_" style="fill:#1C262D;" d="M418.965,471.758c0,0.221-0.016,0.488-0.037,0.65h-5.084
				c0.207,1.037,0.932,1.488,1.842,1.488c0.623,0,1.295-0.252,1.815-0.689l1.133,1.244c-0.814,0.748-1.852,1.088-3.057,1.088
				c-2.199,0-3.725-1.496-3.725-3.752c0-2.258,1.48-3.797,3.627-3.797C417.543,467.99,418.957,469.521,418.965,471.758z
				 M413.852,471.092h3.174c-0.178-0.918-0.732-1.438-1.561-1.438C414.555,469.654,414.022,470.203,413.852,471.092z"/>
			<path id="XMLID_328_" style="fill:#1C262D;" d="M426.619,471.758c0,0.221-0.016,0.488-0.037,0.65h-5.086
				c0.207,1.037,0.934,1.488,1.844,1.488c0.621,0,1.295-0.252,1.813-0.689l1.133,1.244c-0.814,0.748-1.85,1.088-3.057,1.088
				c-2.199,0-3.723-1.496-3.723-3.752c0-2.258,1.48-3.797,3.627-3.797C425.197,467.99,426.611,469.521,426.619,471.758z
				 M421.504,471.092h3.176c-0.178-0.918-0.734-1.438-1.563-1.438C422.207,469.654,421.674,470.203,421.504,471.092z"/>
			<path id="XMLID_325_" style="fill:#1C262D;" d="M434.965,471.764c0,2.154-1.496,3.775-3.473,3.775
				c-0.961,0-1.643-0.377-2.109-0.932v3.707h-1.924v-10.133h1.887v0.793c0.467-0.586,1.154-0.984,2.139-0.984
				C433.469,467.99,434.965,469.611,434.965,471.764z M429.287,471.764c0,1.133,0.748,1.977,1.844,1.977
				c1.139,0,1.85-0.881,1.85-1.977c0-1.094-0.711-1.975-1.85-1.975C430.035,469.789,429.287,470.633,429.287,471.764z"/>
			<path id="XMLID_322_" style="fill:#1C262D;" d="M438.068,465.836c0,0.695-0.541,1.229-1.236,1.229
				c-0.697,0-1.229-0.533-1.229-1.229c0-0.695,0.531-1.244,1.229-1.244C437.527,464.592,438.068,465.141,438.068,465.836z
				 M437.809,475.353h-1.932v-7.172h1.932V475.353z"/>
			<path id="XMLID_320_" style="fill:#1C262D;" d="M441.031,470.736l2.703-2.555h2.367l-3.479,3.375l3.502,3.797h-2.377l-2.717-2.9
				v2.9H439.1v-10.658h1.932V470.736z"/>
		</g>
		<g>
			<path style="fill:#1C262D;" d="M309.412,475.289v-1.055c-0.527,0.719-1.391,1.23-2.387,1.23c-1.846,0-3.149-1.406-3.149-3.705
				c0-2.256,1.289-3.721,3.149-3.721c0.952,0,1.816,0.469,2.387,1.244v-3.764h1.099v9.77H309.412z M309.412,473.371v-3.209
				c-0.395-0.615-1.245-1.143-2.124-1.143c-1.42,0-2.27,1.172-2.27,2.74c0,1.566,0.85,2.725,2.27,2.725
				C308.168,474.484,309.017,473.986,309.412,473.371z"/>
			<path style="fill:#1C262D;" d="M311.932,471.744c0-2.051,1.465-3.705,3.486-3.705c2.139,0,3.398,1.67,3.398,3.793v0.279h-5.727
				c0.088,1.332,1.025,2.445,2.549,2.445c0.806,0,1.626-0.322,2.182-0.893l0.527,0.717c-0.703,0.703-1.655,1.084-2.812,1.084
				C313.44,475.465,311.932,473.957,311.932,471.744z M315.403,468.947c-1.509,0-2.256,1.273-2.314,2.357h4.643
				C317.718,470.25,317.015,468.947,315.403,468.947z"/>
			<path style="fill:#1C262D;" d="M319.607,474.352l0.571-0.791c0.469,0.543,1.362,1.012,2.329,1.012c1.085,0,1.67-0.514,1.67-1.217
				c0-1.713-4.38-0.658-4.38-3.281c0-1.098,0.952-2.035,2.636-2.035c1.202,0,2.051,0.453,2.622,1.025l-0.513,0.762
				c-0.424-0.514-1.201-0.895-2.109-0.895c-0.966,0-1.567,0.484-1.567,1.113c0,1.553,4.379,0.527,4.379,3.281
				c0,1.188-0.952,2.139-2.783,2.139C321.306,475.465,320.325,475.113,319.607,474.352z"/>
			<path style="fill:#1C262D;" d="M326.477,466.471c0-0.41,0.337-0.746,0.732-0.746c0.41,0,0.747,0.336,0.747,0.746
				c0,0.41-0.337,0.732-0.747,0.732C326.814,467.203,326.477,466.881,326.477,466.471z M326.667,475.289v-7.074h1.099v7.074H326.667
				z"/>
			<path style="fill:#1C262D;" d="M329.582,477.105l0.556-0.82c0.586,0.703,1.289,0.967,2.3,0.967c1.172,0,2.271-0.57,2.271-2.123
				v-1.012c-0.513,0.719-1.377,1.26-2.373,1.26c-1.846,0-3.149-1.377-3.149-3.662c0-2.27,1.289-3.676,3.149-3.676
				c0.952,0,1.802,0.469,2.373,1.244v-1.068h1.099v6.869c0,2.344-1.641,3.076-3.369,3.076
				C331.237,478.16,330.417,477.926,329.582,477.105z M334.708,473.254v-3.092c-0.381-0.615-1.23-1.143-2.109-1.143
				c-1.421,0-2.27,1.129-2.27,2.695c0,1.553,0.849,2.695,2.27,2.695C333.478,474.41,334.328,473.869,334.708,473.254z"/>
			<path style="fill:#1C262D;" d="M342.413,475.289v-4.629c0-1.244-0.63-1.641-1.582-1.641c-0.864,0-1.684,0.527-2.094,1.1v5.17
				h-1.099v-7.074h1.099v1.025c0.498-0.586,1.464-1.201,2.519-1.201c1.479,0,2.256,0.746,2.256,2.285v4.965H342.413z"/>
			<path style="fill:#1C262D;" d="M344.932,471.744c0-2.051,1.465-3.705,3.486-3.705c2.139,0,3.398,1.67,3.398,3.793v0.279h-5.727
				c0.088,1.332,1.025,2.445,2.548,2.445c0.806,0,1.626-0.322,2.183-0.893l0.527,0.717c-0.703,0.703-1.655,1.084-2.813,1.084
				C346.441,475.465,344.932,473.957,344.932,471.744z M348.404,468.947c-1.509,0-2.256,1.273-2.314,2.357h4.643
				C350.718,470.25,350.015,468.947,348.404,468.947z"/>
			<path style="fill:#1C262D;" d="M358.35,475.289v-1.055c-0.527,0.719-1.392,1.23-2.388,1.23c-1.845,0-3.149-1.406-3.149-3.705
				c0-2.256,1.289-3.721,3.149-3.721c0.952,0,1.817,0.469,2.388,1.244v-3.764h1.098v9.77H358.35z M358.35,473.371v-3.209
				c-0.396-0.615-1.245-1.143-2.124-1.143c-1.421,0-2.271,1.172-2.271,2.74c0,1.566,0.85,2.725,2.271,2.725
				C357.105,474.484,357.954,473.986,358.35,473.371z"/>
			<path style="fill:#1C262D;" d="M364.692,475.289v-9.77h1.099v3.764c0.571-0.775,1.421-1.244,2.388-1.244
				c1.845,0,3.149,1.465,3.149,3.721c0,2.299-1.304,3.705-3.149,3.705c-0.996,0-1.86-0.512-2.388-1.23v1.055H364.692z
				 M367.9,474.484c1.435,0,2.285-1.158,2.285-2.725c0-1.568-0.85-2.74-2.285-2.74c-0.864,0-1.729,0.527-2.109,1.143v3.209
				C366.171,473.986,367.036,474.484,367.9,474.484z"/>
			<path style="fill:#1C262D;" d="M372.528,477.063c0.161,0.072,0.425,0.117,0.601,0.117c0.483,0,0.806-0.162,1.055-0.748
				l0.469-1.068l-2.959-7.148h1.187l2.358,5.801l2.344-5.801h1.201l-3.545,8.51c-0.425,1.025-1.143,1.422-2.08,1.436
				c-0.234,0-0.601-0.043-0.806-0.103L372.528,477.063z"/>
		</g>
	</g>
</g>
</svg>
